<?xml version="1.0" encoding="utf-8"?>
<!-- Generator: Adobe Illustrator 25.2.0, SVG Export Plug-In . SVG Version: 6.00 Build 0)  -->
<svg version="1.1" id="Layer_1" xmlns="http://www.w3.org/2000/svg" xmlns:xlink="http://www.w3.org/1999/xlink" x="0px" y="0px"
	 viewBox="0 0 330.3 165" style="enable-background:new 0 0 330.3 165;" xml:space="preserve">
<style type="text/css">
	.st0{fill:#FF0000;}
	.st1{fill:#008000;}
	.st2{fill:#FFA500;}
	.st3{fill:#00FF00;}
	.st4{font-family:'MyriadPro-Regular';}
	.st5{font-size:19.1386px;}
</style>
<g>
	<path class="st0" d="M48.4,48.2C18.5,78.1,0,119.4,0,165h165.2v0L48.4,48.2z"/>
	<path class="st1" d="M165.2-0.2c-45.6,0-86.9,18.5-116.8,48.4L165.2,165V-0.2z"/>
	<path class="st2" d="M165.2,165L281.9,48.2C252,18.3,210.8-0.2,165.2-0.2L165.2,165L165.2,165z"/>
	<path class="st0" d="M281.9,48.2L165.2,165l0,0h165.1C330.3,119.4,311.8,78.1,281.9,48.2z"/>
	<polygon class="st3" points="165.2,165 165.2,165 165.2,165 	"/>
	<polygon class="st3" points="165.2,165 165.2,165 165.2,165 	"/>
</g>
<text transform="matrix(0.3699 -0.9291 0.9291 0.3699 33.6893 135.3026)" class="st4 st5">Kurus</text>
<text transform="matrix(0.8882 -0.4594 0.4594 0.8882 92.4227 48.2109)" class="st4 st5">ideal</text>
<text transform="matrix(0.9144 0.4048 -0.4048 0.9144 189.7773 23.6556)"><tspan x="0" y="0" class="st4 st5">   berat </tspan><tspan x="0" y="23" class="st4 st5">berlebih</tspan></text>
<text transform="matrix(0.3995 0.9167 -0.9167 0.3995 281.9283 82.4953)" class="st4 st5">obesitas</text>
</svg>
